<?xml version="1.0" encoding="UTF-8" standalone="no"?>
<!-- Generator: Adobe Illustrator 19.0.0, SVG Export Plug-In . SVG Version: 6.00 Build 0)  -->

<svg
   xmlns:dc="http://purl.org/dc/elements/1.1/"
   xmlns:cc="http://creativecommons.org/ns#"
   xmlns:rdf="http://www.w3.org/1999/02/22-rdf-syntax-ns#"
   xmlns:svg="http://www.w3.org/2000/svg"
   xmlns="http://www.w3.org/2000/svg"
   xmlns:sodipodi="http://sodipodi.sourceforge.net/DTD/sodipodi-0.dtd"
   xmlns:inkscape="http://www.inkscape.org/namespaces/inkscape"
   version="1.1"
   id="Layer_1"
   x="0px"
   y="0px"
   viewBox="0 0 512 512"
   style="enable-background:new 0 0 512 512;"
   xml:space="preserve"
   sodipodi:docname="185673.svg"
   inkscape:version="0.92.4 (5da689c313, 2019-01-14)"><metadata
   id="metadata49"><rdf:RDF><cc:Work
       rdf:about=""><dc:format>image/svg+xml</dc:format><dc:type
         rdf:resource="http://purl.org/dc/dcmitype/StillImage" /></cc:Work></rdf:RDF></metadata><defs
   id="defs47" /><sodipodi:namedview
   pagecolor="#ffffff"
   bordercolor="#666666"
   borderopacity="1"
   objecttolerance="10"
   gridtolerance="10"
   guidetolerance="10"
   inkscape:pageopacity="0"
   inkscape:pageshadow="2"
   inkscape:window-width="1920"
   inkscape:window-height="1001"
   id="namedview45"
   showgrid="false"
   inkscape:zoom="0.4609375"
   inkscape:cx="256"
   inkscape:cy="256"
   inkscape:window-x="-9"
   inkscape:window-y="-9"
   inkscape:window-maximized="1"
   inkscape:current-layer="Layer_1" />
<g
   id="g6"
   transform="matrix(-1,0,0,1,511.999,0)">
	<g
   id="g4">
		<path
   d="m 488.104,306.189 c -7.231,-16.895 -12.906,-21.19 -16.547,-22.949 -2.397,-1.16 -5.573,-2.29 -9.282,-3.215 16.132,-6.731 22.097,-20.647 22.194,-20.885 0.408,-0.996 0.618,-2.063 0.618,-3.141 0,-8.522 -8.36,-32.684 -23.477,-54.084 -14.574,-20.631 -40.501,-46.329 -81.261,-51.587 -0.084,-0.011 -0.166,-0.011 -0.25,-0.02 -7.133,-18.797 -15.283,-28.31 -20.178,-32.687 v -14.387 c 0,-4.58 -3.713,-8.294 -8.294,-8.294 -4.58,0 -8.294,3.713 -8.294,8.294 v 16.252 c -5.056,8.94 -8.773,17.371 -11.473,25.042 -2.706,-15.715 -7.906,-37.749 -17.787,-59.984 C 289.492,29.236 247.868,0 193.701,0 128.485,0 88.005,25.75 65.532,47.352 41.011,70.919 32.12,94.503 31.754,95.495 c -0.791,2.142 -0.66,4.517 0.355,6.562 1.015,2.046 2.833,3.583 5.017,4.247 0.135,0.041 13.639,4.197 26.805,12.2 11.022,6.7 24.161,17.575 24.161,31.335 0,12.968 -10.919,32.492 -23.562,55.098 -21.033,37.61 -47.211,84.418 -47.211,139.528 0,43.077 16.053,84.997 45.201,118.04 C 89.861,493.498 125.671,512 158.314,512 H 352.94 c 4.58,0 8.294,-3.713 8.294,-8.294 0,-38.728 -22.563,-52.527 -43.68,-52.527 h -28.75 c 7.385,-13.367 15.149,-32.984 18.278,-53.867 29.359,-0.703 79.495,-21.106 98.816,-40.428 17.317,-17.316 25.457,-17.311 31.672,-14.725 18.035,7.502 44.393,-1.812 51.841,-6.782 3.497,-2.332 5.269,-5.212 5.269,-8.558 -0.001,-4.374 -5.187,-17.385 -6.576,-20.63 z m -44.166,20.654 c -19.578,-8.144 -36.146,4.688 -49.77,18.313 -15.997,15.997 -60.259,34.138 -85.673,35.51 0.199,-12.385 -1.632,-24.754 -6.503,-36.111 -12.738,-29.7 -42.487,-45.436 -88.421,-46.772 -4.578,-0.111 -8.398,3.471 -8.531,8.049 -0.133,4.578 3.471,8.398 8.049,8.531 38.909,1.13 63.69,13.488 73.658,36.729 15.116,35.244 -6.354,84.623 -17.43,100.087 h -13.691 c -4.58,0 -8.294,3.713 -8.294,8.294 0,4.58 3.713,8.294 8.294,8.294 h 61.927 c 9.146,0 23.895,3.816 26.644,27.646 H 158.314 C 130.359,495.413 99.2,479.01 74.962,451.534 48.488,421.523 33.909,383.5 33.909,344.467 c 0,-50.786 25.007,-95.502 45.101,-131.431 14.344,-25.646 25.672,-45.904 25.672,-63.195 0,-31.084 -36.383,-49.278 -53.777,-56.199 4.288,-8.107 12.694,-21.571 26.701,-34.883 29.438,-27.982 68.499,-42.17 116.093,-42.17 47.657,0 82.998,25 105.043,74.306 13.95,31.201 18.039,62.9 19.068,73.436 -20.604,9.264 -53.997,30.561 -73.559,52.986 -38.146,-11.56 -79.964,-2.543 -111.01,25.141 -44.687,39.85 -55.567,106.072 -29.102,177.148 1.243,3.339 4.409,5.402 7.774,5.402 0.961,0 1.939,-0.168 2.893,-0.523 4.293,-1.599 6.477,-6.374 4.879,-10.667 -23.988,-64.422 -14.792,-123.854 24.597,-158.98 31.148,-27.776 74.869,-33.716 111.387,-15.132 4.083,2.078 9.076,0.452 11.153,-3.629 2.078,-4.083 0.452,-9.077 -3.629,-11.153 -0.783,-0.398 -1.574,-0.766 -2.362,-1.146 19.835,-20.609 49.017,-37.587 63.978,-44.459 -0.179,4.682 0.098,7.452 0.138,7.813 0.471,4.242 4.062,7.378 8.233,7.378 0.305,0 0.615,-0.017 0.926,-0.051 4.553,-0.505 7.833,-4.606 7.327,-9.159 -0.024,-0.226 -2.082,-20.766 12.25,-49.932 5.097,6.806 12.326,19.897 17.506,43.412 0.985,4.474 5.412,7.302 9.884,6.314 4.473,-0.985 7.301,-5.411 6.315,-9.884 -0.549,-2.488 -1.125,-4.857 -1.716,-7.154 30.389,6.434 50.414,26.596 62.116,43.042 13.385,18.809 19.322,37.233 20.493,43.293 -1.224,1.997 -3.86,5.563 -8.399,8.365 -9.745,6.016 -23.779,5.586 -40.592,-1.247 -4.242,-1.724 -9.081,0.317 -10.806,4.56 -1.725,4.243 0.317,9.081 4.562,10.806 3.622,1.472 7.075,2.667 10.369,3.624 -10.762,6.204 -33.323,14.149 -77.801,13.438 -0.045,0 -0.09,-0.001 -0.135,-0.001 -4.518,0 -8.219,3.627 -8.29,8.162 -0.073,4.58 3.581,8.351 8.161,8.424 1.964,0.031 3.88,0.046 5.77,0.046 37.37,0 60.513,-5.968 74.689,-12.571 14.152,-6.196 32.05,-2.959 38.431,0.123 3.665,2.303 9.928,16.799 12.675,25.167 -7.355,3.162 -23.398,7.538 -32.977,3.556 z"
   id="path2"
   inkscape:connector-curvature="0" />
	</g>
</g>
<g
   id="g12"
   transform="matrix(-1,0,0,1,511.999,0)">
	<g
   id="g10">
		<path
   d="m 417.447,210.111 c -7.012,0 -12.717,5.705 -12.717,12.717 0,7.013 5.704,12.717 12.717,12.717 7.012,0 12.717,-5.705 12.717,-12.717 0,-7.012 -5.705,-12.717 -12.717,-12.717 z"
   id="path8"
   inkscape:connector-curvature="0" />
	</g>
</g>
<g
   id="g14">
</g>
<g
   id="g16">
</g>
<g
   id="g18">
</g>
<g
   id="g20">
</g>
<g
   id="g22">
</g>
<g
   id="g24">
</g>
<g
   id="g26">
</g>
<g
   id="g28">
</g>
<g
   id="g30">
</g>
<g
   id="g32">
</g>
<g
   id="g34">
</g>
<g
   id="g36">
</g>
<g
   id="g38">
</g>
<g
   id="g40">
</g>
<g
   id="g42">
</g>
</svg>